<svg version="1.1" id="Layer_1" xmlns="http://www.w3.org/2000/svg" xmlns:xlink="http://www.w3.org/1999/xlink" x="0px" y="0px"
	 width="100%" viewBox="0 0 447 447" enable-background="new 0 0 447 447" xml:space="preserve">
<path fill="#010101" opacity="1.000000" stroke="none" 
	d="
M448.000000,172.000000 
	C448.000000,264.307678 448.000000,356.115326 448.000000,447.961487 
	C299.067291,447.961487 150.134598,447.961487 1.100943,447.961487 
	C1.100943,299.108978 1.100943,150.217896 1.100943,1.163395 
	C149.999847,1.163395 298.999908,1.163395 448.000000,1.163395 
	C448.000000,57.865444 448.000000,114.682724 448.000000,172.000000 
M379.450104,360.949585 
	C394.087585,344.336090 406.073334,326.035339 414.770508,305.623779 
	C437.018646,253.409088 438.239349,200.498718 418.977936,147.330994 
	C403.886627,105.673973 377.409607,72.201828 340.901398,47.401459 
	C284.679535,9.209409 223.189224,-0.060794 158.365219,19.818975 
	C96.361099,38.833961 52.016911,79.398628 26.981461,138.970795 
	C-1.172222,205.962845 3.477831,272.313049 42.796867,333.424652 
	C89.387199,405.837708 157.639236,438.463165 243.636993,430.875427 
	C297.716858,426.103882 342.666931,401.789795 379.450104,360.949585 
z"/>
<path fill="#EFEFEF" opacity="1.000000" stroke="none" 
	d="
M379.204651,361.206238 
	C342.666931,401.789795 297.716858,426.103882 243.636993,430.875427 
	C157.639236,438.463165 89.387199,405.837708 42.796867,333.424652 
	C3.477831,272.313049 -1.172222,205.962845 26.981461,138.970795 
	C52.016911,79.398628 96.361099,38.833961 158.365219,19.818975 
	C223.189224,-0.060794 284.679535,9.209409 340.901398,47.401459 
	C377.409607,72.201828 403.886627,105.673973 418.977936,147.330994 
	C438.239349,200.498718 437.018646,253.409088 414.770508,305.623779 
	C406.073334,326.035339 394.087585,344.336090 379.204651,361.206238 
M229.412613,420.001892 
	C231.410934,419.969269 233.438126,420.144348 235.403015,419.871185 
	C251.306976,417.660126 267.092529,415.091797 282.503967,410.201233 
	C300.269806,404.563538 316.736145,396.381287 332.115448,386.128357 
	C348.622131,375.123810 362.952576,361.647827 375.533447,346.164154 
	C389.206573,329.336121 399.676910,310.842010 407.230865,290.624420 
	C413.704773,273.297394 417.559692,255.460007 419.285034,236.952957 
	C420.735229,221.397751 419.853516,206.055420 417.576202,190.850067 
	C415.074341,174.145447 410.213196,158.026398 403.452545,142.335617 
	C390.259979,111.716934 370.481201,86.301506 344.741272,65.593956 
	C320.742462,46.287113 293.551971,32.953159 263.150177,27.163324 
	C249.858276,24.631964 236.304352,23.101377 222.797333,22.216375 
	C214.789810,21.691710 206.527725,22.678129 198.581787,24.106869 
	C184.271835,26.679916 169.700821,28.858229 155.982529,33.431984 
	C131.687454,41.532101 109.994743,54.561604 90.615906,71.639221 
	C71.658836,88.345169 56.096416,107.590279 44.657265,129.954453 
	C29.093086,160.383301 21.438951,192.678024 22.802673,227.139008 
	C23.384161,241.833084 25.095726,256.264679 28.823633,270.345825 
	C31.742435,281.370789 35.970161,292.085907 40.136600,302.735168 
	C46.229904,318.309387 55.011196,332.556061 65.920212,345.023926 
	C76.360222,356.955750 88.071091,367.902008 100.055092,378.325195 
	C115.860275,392.071899 134.556442,401.367218 154.123352,408.360138 
	C178.046127,416.909698 202.888535,421.072906 229.412613,420.001892 
z"/>
<path fill="#FEFEFC" opacity="1.000000" stroke="none" 
	d="
M228.923340,420.001984 
	C202.888535,421.072906 178.046127,416.909698 154.123352,408.360138 
	C134.556442,401.367218 115.860275,392.071899 100.055092,378.325195 
	C88.071091,367.902008 76.360222,356.955750 65.920212,345.023926 
	C55.011196,332.556061 46.229904,318.309387 40.136600,302.735168 
	C35.970161,292.085907 31.742435,281.370789 28.823633,270.345825 
	C25.095726,256.264679 23.384161,241.833084 22.802673,227.139008 
	C21.438951,192.678024 29.093086,160.383301 44.657265,129.954453 
	C56.096416,107.590279 71.658836,88.345169 90.615906,71.639221 
	C109.994743,54.561604 131.687454,41.532101 155.982529,33.431984 
	C169.700821,28.858229 184.271835,26.679916 198.581787,24.106869 
	C206.527725,22.678129 214.789810,21.691710 222.797333,22.216375 
	C236.304352,23.101377 249.858276,24.631964 263.150177,27.163324 
	C293.551971,32.953159 320.742462,46.287113 344.741272,65.593956 
	C370.481201,86.301506 390.259979,111.716934 403.452545,142.335617 
	C410.213196,158.026398 415.074341,174.145447 417.576202,190.850067 
	C419.853516,206.055420 420.735229,221.397751 419.285034,236.952957 
	C417.559692,255.460007 413.704773,273.297394 407.230865,290.624420 
	C399.676910,310.842010 389.206573,329.336121 375.533447,346.164154 
	C362.952576,361.647827 348.622131,375.123810 332.115448,386.128357 
	C316.736145,396.381287 300.269806,404.563538 282.503967,410.201233 
	C267.092529,415.091797 251.306976,417.660126 235.403015,419.871185 
	C233.438126,420.144348 231.410934,419.969269 228.923340,420.001984 
M211.466400,103.990417 
	C189.999420,94.868523 169.499008,97.100471 151.058746,111.001831 
	C132.656082,124.874832 125.702034,144.276871 128.335266,166.966629 
	C131.237396,191.973282 145.363342,209.761520 166.662628,221.547012 
	C180.285767,229.085083 195.178604,234.299576 209.342499,240.898605 
	C220.334991,246.020035 231.506729,251.074890 239.335297,263.091095 
	C242.372910,259.209259 245.830475,256.164001 247.548462,252.337677 
	C252.693466,240.878647 254.168274,229.053131 248.379044,218.186905 
	C257.707275,216.818085 266.969360,216.043472 275.935425,213.981583 
	C285.204376,211.850037 293.473236,206.793518 299.193726,199.271194 
	C304.752350,191.961716 310.153046,183.979034 313.211945,175.429306 
	C321.182739,153.150681 313.643707,128.508606 294.829376,112.857506 
	C279.754425,100.317062 262.453705,96.281212 242.078491,101.096878 
	C250.359421,107.997986 255.159698,115.685104 255.795700,125.561623 
	C256.432068,135.443985 253.527176,143.982361 246.097275,152.144241 
	C242.953033,129.531784 231.762405,113.839325 211.466400,103.990417 
M125.217430,299.723755 
	C122.310928,297.845520 119.589775,294.853455 116.457466,294.332184 
	C110.784187,293.388153 104.864792,293.835999 99.050606,293.906494 
	C98.011879,293.919067 96.985054,294.915070 96.619637,295.106903 
	C98.275635,297.434570 100.604004,299.209961 100.445137,300.724487 
	C99.325882,311.394501 104.127602,322.728485 96.781647,333.153412 
	C101.578583,333.153412 106.107887,333.153412 111.619598,333.153412 
	C110.736229,331.734863 110.236443,330.074677 109.569923,330.004791 
	C105.954544,329.625732 106.545731,327.060242 106.614502,324.823181 
	C106.689812,322.373230 106.856621,319.906860 107.299271,317.505890 
	C107.375259,317.093689 109.019135,316.797882 109.954865,316.747467 
	C113.569382,316.552582 119.813614,324.994904 118.251312,328.824585 
	C116.468529,333.194702 118.944077,333.340729 121.754692,333.530396 
	C124.371590,333.706970 127.009773,333.568115 131.263733,333.568115 
	C128.274628,330.202087 125.783463,328.108917 124.230164,325.464783 
	C122.348869,322.262268 121.260521,318.593933 119.721901,314.867645 
	C125.461845,311.579987 127.359695,306.730469 125.217430,299.723755 
M290.896545,327.418732 
	C290.703674,331.561005 290.492920,335.660889 289.605286,339.779022 
	C289.324005,341.084106 291.987366,344.294037 293.579651,344.500580 
	C298.891937,345.189636 304.427307,345.581757 309.691223,344.813477 
	C314.779785,344.070709 317.564911,339.613678 316.817413,335.535431 
	C315.885040,330.448334 311.887054,329.862976 307.749664,329.585815 
	C304.027527,329.336456 300.303589,329.114075 296.580444,328.879791 
	C296.443237,328.238464 296.306030,327.597107 296.168793,326.955750 
	C297.798309,326.260620 299.402588,325.035004 301.061401,324.956024 
	C312.198029,324.426025 315.405914,320.700897 313.553223,310.533386 
	C314.860931,309.178009 315.997742,307.999786 317.134521,306.821564 
	C315.593201,306.296173 314.087006,305.563477 312.502136,305.294800 
	C310.221985,304.908203 307.876984,304.923950 305.573181,304.653076 
	C300.175873,304.018433 294.902618,304.534760 291.801453,309.460358 
	C288.732483,314.334900 289.799286,319.300232 293.999878,323.488647 
	C293.023590,324.710510 292.200836,325.740234 290.896545,327.418732 
M276.237976,323.342285 
	C276.013977,325.292725 276.068359,327.334137 275.470764,329.162476 
	C275.053528,330.439117 273.743744,331.424072 272.832642,332.539307 
	C274.537567,332.892975 276.228455,333.407227 277.951141,333.558136 
	C279.933838,333.731812 281.961487,333.730438 283.934784,333.503021 
	C284.703247,333.414429 285.630493,332.630341 285.992401,331.913971 
	C286.189636,331.523651 285.425598,330.079712 284.973694,330.019318 
	C281.405548,329.542542 282.197296,326.879822 282.154602,324.675293 
	C282.096527,321.678314 281.936249,318.662903 282.175903,315.684082 
	C283.144318,303.647583 274.131317,302.518311 266.944336,306.505524 
	C266.221985,306.906250 265.463501,307.241882 264.438293,307.747589 
	C263.931396,307.146240 263.478943,306.105896 262.945404,306.062469 
	C260.442139,305.858887 257.916595,305.929382 255.399002,305.902008 
	C256.108643,307.259857 256.861572,308.597443 257.510345,309.983795 
	C257.850769,310.711304 258.208069,311.522003 258.216705,312.298889 
	C258.272125,317.294647 258.604401,322.326843 258.132507,327.279114 
	C257.523590,333.668915 257.237427,333.706329 263.411316,333.554474 
	C264.946625,333.516724 266.468018,332.911865 267.995789,332.567657 
	C267.102081,331.492676 266.141052,330.464874 265.341125,329.324127 
	C264.895416,328.688477 264.473572,327.869354 264.459869,327.125214 
	C264.383270,322.963165 264.134064,318.770416 264.523926,314.642975 
	C264.938538,310.253510 268.990814,309.790741 272.044525,309.954254 
	C273.513580,310.032928 275.430145,312.977234 276.038269,314.962585 
	C276.738678,317.249146 276.217590,319.909912 276.237976,323.342285 
M236.851913,317.708405 
	C234.876328,317.991516 232.849167,318.082458 230.935440,318.596100 
	C226.339920,319.829498 224.267273,323.569702 225.260513,328.685150 
	C226.145264,333.241852 229.484741,334.499390 233.473801,333.966827 
	C236.352905,333.582428 239.125717,332.401947 241.945938,331.576538 
	C241.856155,331.828888 241.766388,332.081238 241.676605,332.333588 
	C244.835526,332.821564 247.994446,333.309540 251.153381,333.797516 
	C251.395416,333.371063 251.637466,332.944641 251.879517,332.518188 
	C246.992264,328.668182 248.257370,323.445068 248.186142,318.523682 
	C248.157227,316.526215 248.284393,314.519684 248.139359,312.531952 
	C247.770294,307.473297 244.954056,304.984436 239.168213,304.441132 
	C232.447189,303.809998 227.809006,306.008911 226.488846,310.515106 
	C226.376450,310.898834 226.720413,311.416260 227.233032,313.185211 
	C229.447372,312.022247 231.237869,310.710388 233.240143,310.133331 
	C235.300842,309.539398 237.958466,308.882416 239.622253,309.715729 
	C240.970734,310.391174 241.746140,313.237213 241.737747,315.115814 
	C241.734131,315.925262 239.109818,316.722961 236.851913,317.708405 
M131.141663,320.368927 
	C131.348541,325.852783 132.989075,330.865356 138.395538,332.967773 
	C143.937653,335.122925 149.652328,334.709747 154.769562,331.508118 
	C154.275925,326.824646 151.687439,328.241730 149.316132,328.818359 
	C141.993484,330.598969 138.481750,328.271179 138.065994,320.999329 
	C143.660095,320.999329 149.239426,320.999329 154.707916,320.999329 
	C156.865753,311.082672 152.835922,304.694397 144.649292,304.429535 
	C136.511154,304.166199 131.373444,309.897522 131.141663,320.368927 
M172.880890,329.704132 
	C172.000153,329.153534 170.371674,328.626038 170.353867,328.048828 
	C170.167297,322.002014 170.238678,315.947296 170.238678,309.570862 
	C172.697723,309.570862 174.393982,309.819702 175.968216,309.488525 
	C177.131042,309.243866 178.134827,308.243164 179.209473,307.579315 
	C178.061523,306.812286 177.005630,305.702362 175.742783,305.363342 
	C174.094452,304.920898 172.282227,305.088989 170.397797,304.986633 
	C170.312927,303.101074 169.987305,301.735870 170.264053,300.506226 
	C170.598694,299.019348 171.182968,296.696899 172.125641,296.438660 
	C173.711731,296.004120 175.670853,296.887604 177.463455,297.262604 
	C179.353928,297.658142 181.233139,298.107483 183.791748,298.685730 
	C181.429901,291.993439 179.413834,290.946533 172.424118,291.678802 
	C167.211823,292.224854 164.650436,294.854980 163.943878,300.409241 
	C163.671387,302.551331 164.639969,305.415131 160.920441,305.507538 
	C160.978210,306.815704 160.936859,309.250458 161.108414,309.265564 
	C164.484955,309.562653 163.852234,312.002960 163.862335,314.078827 
	C163.881729,318.066010 164.037567,322.064758 163.769867,326.033997 
	C163.683334,327.317322 162.481033,328.543304 161.728043,329.757629 
	C161.202927,330.604462 160.573822,331.386780 159.991165,332.197906 
	C160.934540,332.654053 161.862747,333.462463 162.823959,333.503876 
	C166.472260,333.660950 170.142014,333.730591 173.780487,333.486389 
	C175.093323,333.398315 176.340652,332.334106 177.617874,331.715332 
	C176.319641,331.055756 175.021408,330.396179 172.880890,329.704132 
M323.642242,330.901550 
	C327.694946,331.877777 331.743927,333.631500 335.801239,333.651123 
	C342.161133,333.681854 345.825104,329.466309 346.950073,322.503937 
	C348.265411,314.363434 345.549927,308.048798 339.703003,305.651520 
	C333.557373,303.131744 326.168365,304.790405 322.474945,309.518890 
	C318.326874,314.829437 318.621613,324.407166 323.642242,330.901550 
M186.257523,333.634460 
	C188.421906,333.634644 190.614914,333.852631 192.742477,333.572845 
	C194.803452,333.301788 196.797134,332.518951 198.820374,331.960907 
	C197.042068,330.857758 195.263763,329.754639 193.138962,328.436523 
	C191.036957,316.015198 192.212204,311.463806 196.795563,310.450958 
	C199.609940,311.993347 201.540924,313.051636 203.471924,314.109894 
	C203.960037,313.718567 204.448166,313.327240 204.936279,312.935913 
	C204.324768,310.199158 203.826492,305.155518 203.082413,305.118958 
	C199.580688,304.947052 196.011520,306.148865 192.466415,306.860474 
	C191.950394,308.022491 191.845764,307.248383 191.579529,307.188110 
	C188.968735,306.597168 186.331024,306.125153 183.700958,305.619324 
	C184.367950,307.076172 185.134720,308.497681 185.667892,310.001953 
	C186.042618,311.059174 186.252228,312.226532 186.270767,313.349121 
	C186.339432,317.510254 186.489258,321.686890 186.192780,325.827911 
	C186.091690,327.239655 184.946075,328.715179 183.959595,329.895721 
	C181.986191,332.257324 182.455673,333.386963 186.257523,333.634460 
M207.786758,307.279510 
	C207.910995,307.584106 207.955551,307.970734 208.171677,308.180786 
	C210.628281,310.568237 212.722778,326.025482 210.824493,328.730255 
	C210.415375,329.313171 209.342636,329.386810 208.760727,329.903534 
	C208.101471,330.488953 207.650589,331.309021 207.109100,332.027069 
	C207.848953,332.547455 208.566971,333.476624 209.332474,333.517517 
	C212.654877,333.695129 215.995224,333.705078 219.319305,333.557251 
	C220.080704,333.523407 221.046539,332.761200 221.446335,332.063721 
	C221.661240,331.688812 220.955795,330.199097 220.526382,330.134216 
	C216.782059,329.568634 217.535568,326.779449 217.527405,324.381958 
	C217.506058,318.120758 217.520218,311.859406 217.520218,304.546234 
	C213.648438,305.344238 210.738708,305.943939 207.786758,307.279510 
M217.811310,297.273956 
	C217.630630,294.231934 215.902756,292.511627 213.017288,293.192688 
	C211.664520,293.511963 210.055267,295.337891 209.760712,296.733917 
	C209.521393,297.868103 210.753067,300.048553 211.890182,300.587067 
	C214.412155,301.781372 216.714249,301.009125 217.811310,297.273956 
z"/>
<path fill="#EE1634" opacity="1.000000" stroke="none" 
	d="
M211.804474,104.161705 
	C231.762405,113.839325 242.953033,129.531784 246.097275,152.144241 
	C253.527176,143.982361 256.432068,135.443985 255.795700,125.561623 
	C255.159698,115.685104 250.359421,107.997986 242.078491,101.096878 
	C262.453705,96.281212 279.754425,100.317062 294.829376,112.857506 
	C313.643707,128.508606 321.182739,153.150681 313.211945,175.429306 
	C310.153046,183.979034 304.752350,191.961716 299.193726,199.271194 
	C293.473236,206.793518 285.204376,211.850037 275.935425,213.981583 
	C266.969360,216.043472 257.707275,216.818085 248.379044,218.186905 
	C254.168274,229.053131 252.693466,240.878647 247.548462,252.337677 
	C245.830475,256.164001 242.372910,259.209259 239.335297,263.091095 
	C231.506729,251.074890 220.334991,246.020035 209.342499,240.898605 
	C195.178604,234.299576 180.285767,229.085083 166.662628,221.547012 
	C145.363342,209.761520 131.237396,191.973282 128.335266,166.966629 
	C125.702034,144.276871 132.656082,124.874832 151.058746,111.001831 
	C169.499008,97.100471 189.999420,94.868523 211.804474,104.161705 
M174.171234,164.856766 
	C179.967911,181.231003 194.488998,186.842926 209.248611,194.208023 
	C210.592926,182.528610 212.671097,171.891342 207.157852,162.334854 
	C204.336975,157.445206 199.624649,152.725311 194.620789,150.202545 
	C183.146393,144.417557 171.958206,151.908279 174.171234,164.856766 
z"/>
<path fill="#161455" opacity="1.000000" stroke="none" 
	d="
M125.373917,300.094330 
	C127.359695,306.730469 125.461845,311.579987 119.721901,314.867645 
	C121.260521,318.593933 122.348869,322.262268 124.230164,325.464783 
	C125.783463,328.108917 128.274628,330.202087 131.263733,333.568115 
	C127.009773,333.568115 124.371590,333.706970 121.754692,333.530396 
	C118.944077,333.340729 116.468529,333.194702 118.251312,328.824585 
	C119.813614,324.994904 113.569382,316.552582 109.954865,316.747467 
	C109.019135,316.797882 107.375259,317.093689 107.299271,317.505890 
	C106.856621,319.906860 106.689812,322.373230 106.614502,324.823181 
	C106.545731,327.060242 105.954544,329.625732 109.569923,330.004791 
	C110.236443,330.074677 110.736229,331.734863 111.619598,333.153412 
	C106.107887,333.153412 101.578583,333.153412 96.781647,333.153412 
	C104.127602,322.728485 99.325882,311.394501 100.445137,300.724487 
	C100.604004,299.209961 98.275635,297.434570 96.619637,295.106903 
	C96.985054,294.915070 98.011879,293.919067 99.050606,293.906494 
	C104.864792,293.835999 110.784187,293.388153 116.457466,294.332184 
	C119.589775,294.853455 122.310928,297.845520 125.373917,300.094330 
M118.699890,309.133392 
	C120.424683,305.910889 120.917778,302.000916 117.773529,300.225311 
	C114.935669,298.622681 110.914917,299.114746 107.415825,298.683014 
	C106.971642,302.977539 106.527466,307.272064 105.903679,313.303070 
	C111.009155,311.857330 114.636154,310.830292 118.699890,309.133392 
z"/>
<path fill="#1D1B5A" opacity="1.000000" stroke="none" 
	d="
M291.137329,327.094360 
	C292.200836,325.740234 293.023590,324.710510 293.999878,323.488647 
	C289.799286,319.300232 288.732483,314.334900 291.801453,309.460358 
	C294.902618,304.534760 300.175873,304.018433 305.573181,304.653076 
	C307.876984,304.923950 310.221985,304.908203 312.502136,305.294800 
	C314.087006,305.563477 315.593201,306.296173 317.134521,306.821564 
	C315.997742,307.999786 314.860931,309.178009 313.553223,310.533386 
	C315.405914,320.700897 312.198029,324.426025 301.061401,324.956024 
	C299.402588,325.035004 297.798309,326.260620 296.168793,326.955750 
	C296.306030,327.597107 296.443237,328.238464 296.580444,328.879791 
	C300.303589,329.114075 304.027527,329.336456 307.749664,329.585815 
	C311.887054,329.862976 315.885040,330.448334 316.817413,335.535431 
	C317.564911,339.613678 314.779785,344.070709 309.691223,344.813477 
	C304.427307,345.581757 298.891937,345.189636 293.579651,344.500580 
	C291.987366,344.294037 289.324005,341.084106 289.605286,339.779022 
	C290.492920,335.660889 290.703674,331.561005 291.137329,327.094360 
M308.280914,312.281525 
	C306.287231,308.356812 303.028900,307.912964 299.448364,309.480988 
	C296.259552,310.877472 294.691772,314.079590 296.460114,316.815765 
	C297.753265,318.816742 301.181702,320.547272 303.594177,320.467072 
	C307.678192,320.331360 309.441315,317.209686 308.280914,312.281525 
M310.010437,339.583740 
	C311.833893,336.518372 310.124725,335.229095 307.391968,334.858734 
	C304.608795,334.481537 301.717773,334.089264 298.983765,334.477264 
	C297.441711,334.696136 296.121094,336.474976 294.700714,337.551117 
	C295.765076,338.815430 296.806458,341.130402 297.897949,341.154236 
	C301.736481,341.238220 305.592224,340.534882 310.010437,339.583740 
z"/>
<path fill="#1D1A5A" opacity="1.000000" stroke="none" 
	d="
M276.232483,322.875214 
	C276.217590,319.909912 276.738678,317.249146 276.038269,314.962585 
	C275.430145,312.977234 273.513580,310.032928 272.044525,309.954254 
	C268.990814,309.790741 264.938538,310.253510 264.523926,314.642975 
	C264.134064,318.770416 264.383270,322.963165 264.459869,327.125214 
	C264.473572,327.869354 264.895416,328.688477 265.341125,329.324127 
	C266.141052,330.464874 267.102081,331.492676 267.995789,332.567657 
	C266.468018,332.911865 264.946625,333.516724 263.411316,333.554474 
	C257.237427,333.706329 257.523590,333.668915 258.132507,327.279114 
	C258.604401,322.326843 258.272125,317.294647 258.216705,312.298889 
	C258.208069,311.522003 257.850769,310.711304 257.510345,309.983795 
	C256.861572,308.597443 256.108643,307.259857 255.399002,305.902008 
	C257.916595,305.929382 260.442139,305.858887 262.945404,306.062469 
	C263.478943,306.105896 263.931396,307.146240 264.438293,307.747589 
	C265.463501,307.241882 266.221985,306.906250 266.944336,306.505524 
	C274.131317,302.518311 283.144318,303.647583 282.175903,315.684082 
	C281.936249,318.662903 282.096527,321.678314 282.154602,324.675293 
	C282.197296,326.879822 281.405548,329.542542 284.973694,330.019318 
	C285.425598,330.079712 286.189636,331.523651 285.992401,331.913971 
	C285.630493,332.630341 284.703247,333.414429 283.934784,333.503021 
	C281.961487,333.730438 279.933838,333.731812 277.951141,333.558136 
	C276.228455,333.407227 274.537567,332.892975 272.832642,332.539307 
	C273.743744,331.424072 275.053528,330.439117 275.470764,329.162476 
	C276.068359,327.334137 276.013977,325.292725 276.232483,322.875214 
z"/>
<path fill="#1C1959" opacity="1.000000" stroke="none" 
	d="
M237.263977,317.617188 
	C239.109818,316.722961 241.734131,315.925262 241.737747,315.115814 
	C241.746140,313.237213 240.970734,310.391174 239.622253,309.715729 
	C237.958466,308.882416 235.300842,309.539398 233.240143,310.133331 
	C231.237869,310.710388 229.447372,312.022247 227.233032,313.185211 
	C226.720413,311.416260 226.376450,310.898834 226.488846,310.515106 
	C227.809006,306.008911 232.447189,303.809998 239.168213,304.441132 
	C244.954056,304.984436 247.770294,307.473297 248.139359,312.531952 
	C248.284393,314.519684 248.157227,316.526215 248.186142,318.523682 
	C248.257370,323.445068 246.992264,328.668182 251.879517,332.518188 
	C251.637466,332.944641 251.395416,333.371063 251.153381,333.797516 
	C247.994446,333.309540 244.835526,332.821564 241.676605,332.333588 
	C241.766388,332.081238 241.856155,331.828888 241.945938,331.576538 
	C239.125717,332.401947 236.352905,333.582428 233.473801,333.966827 
	C229.484741,334.499390 226.145264,333.241852 225.260513,328.685150 
	C224.267273,323.569702 226.339920,319.829498 230.935440,318.596100 
	C232.849167,318.082458 234.876328,317.991516 237.263977,317.617188 
M236.237625,329.614502 
	C239.460541,328.249268 243.509628,327.095459 241.688431,322.513062 
	C241.292618,321.517090 237.037247,321.473846 234.796494,322.000427 
	C233.347076,322.341034 232.328598,324.515442 231.117004,325.868103 
	C232.571167,327.137146 234.025314,328.406219 236.237625,329.614502 
z"/>
<path fill="#1C1A59" opacity="1.000000" stroke="none" 
	d="
M131.141586,319.933411 
	C131.373444,309.897522 136.511154,304.166199 144.649292,304.429535 
	C152.835922,304.694397 156.865753,311.082672 154.707916,320.999329 
	C149.239426,320.999329 143.660095,320.999329 138.065994,320.999329 
	C138.481750,328.271179 141.993484,330.598969 149.316132,328.818359 
	C151.687439,328.241730 154.275925,326.824646 154.769562,331.508118 
	C149.652328,334.709747 143.937653,335.122925 138.395538,332.967773 
	C132.989075,330.865356 131.348541,325.852783 131.141586,319.933411 
M149.652237,315.544067 
	C149.243759,311.940765 148.050354,309.039368 143.678101,309.234222 
	C139.537338,309.418701 138.272781,312.250366 137.400864,317.055328 
	C141.640289,316.733673 145.395309,316.448792 149.652237,315.544067 
z"/>
<path fill="#171457" opacity="1.000000" stroke="none" 
	d="
M173.302032,329.720367 
	C175.021408,330.396179 176.319641,331.055756 177.617874,331.715332 
	C176.340652,332.334106 175.093323,333.398315 173.780487,333.486389 
	C170.142014,333.730591 166.472260,333.660950 162.823959,333.503876 
	C161.862747,333.462463 160.934540,332.654053 159.991165,332.197906 
	C160.573822,331.386780 161.202927,330.604462 161.728043,329.757629 
	C162.481033,328.543304 163.683334,327.317322 163.769867,326.033997 
	C164.037567,322.064758 163.881729,318.066010 163.862335,314.078827 
	C163.852234,312.002960 164.484955,309.562653 161.108414,309.265564 
	C160.936859,309.250458 160.978210,306.815704 160.920441,305.507538 
	C164.639969,305.415131 163.671387,302.551331 163.943878,300.409241 
	C164.650436,294.854980 167.211823,292.224854 172.424118,291.678802 
	C179.413834,290.946533 181.429901,291.993439 183.791748,298.685730 
	C181.233139,298.107483 179.353928,297.658142 177.463455,297.262604 
	C175.670853,296.887604 173.711731,296.004120 172.125641,296.438660 
	C171.182968,296.696899 170.598694,299.019348 170.264053,300.506226 
	C169.987305,301.735870 170.312927,303.101074 170.397797,304.986633 
	C172.282227,305.088989 174.094452,304.920898 175.742783,305.363342 
	C177.005630,305.702362 178.061523,306.812286 179.209473,307.579315 
	C178.134827,308.243164 177.131042,309.243866 175.968216,309.488525 
	C174.393982,309.819702 172.697723,309.570862 170.238678,309.570862 
	C170.238678,315.947296 170.167297,322.002014 170.353867,328.048828 
	C170.371674,328.626038 172.000153,329.153534 173.302032,329.720367 
z"/>
<path fill="#171456" opacity="1.000000" stroke="none" 
	d="
M323.379456,330.636230 
	C318.621613,324.407166 318.326874,314.829437 322.474945,309.518890 
	C326.168365,304.790405 333.557373,303.131744 339.703003,305.651520 
	C345.549927,308.048798 348.265411,314.363434 346.950073,322.503937 
	C345.825104,329.466309 342.161133,333.681854 335.801239,333.651123 
	C331.743927,333.631500 327.694946,331.877777 323.379456,330.636230 
M325.932220,317.758423 
	C326.034363,319.739868 325.836670,321.794067 326.296387,323.688751 
	C327.540833,328.817444 332.453125,331.493927 336.554199,329.173370 
	C340.527222,326.925293 340.990479,322.908203 340.912537,318.753326 
	C340.799316,312.714874 338.764648,309.664490 334.383270,309.237244 
	C329.771606,308.787506 327.333191,311.003723 325.932220,317.758423 
z"/>
<path fill="#242160" opacity="1.000000" stroke="none" 
	d="
M185.856934,333.632843 
	C182.455673,333.386963 181.986191,332.257324 183.959595,329.895721 
	C184.946075,328.715179 186.091690,327.239655 186.192780,325.827911 
	C186.489258,321.686890 186.339432,317.510254 186.270767,313.349121 
	C186.252228,312.226532 186.042618,311.059174 185.667892,310.001953 
	C185.134720,308.497681 184.367950,307.076172 183.700958,305.619324 
	C186.331024,306.125153 188.968735,306.597168 191.579529,307.188110 
	C191.845764,307.248383 191.950394,308.022491 192.466415,306.860474 
	C196.011520,306.148865 199.580688,304.947052 203.082413,305.118958 
	C203.826492,305.155518 204.324768,310.199158 204.936279,312.935913 
	C204.448166,313.327240 203.960037,313.718567 203.471924,314.109894 
	C201.540924,313.051636 199.609940,311.993347 196.795563,310.450958 
	C192.212204,311.463806 191.036957,316.015198 193.138962,328.436523 
	C195.263763,329.754639 197.042068,330.857758 198.820374,331.960907 
	C196.797134,332.518951 194.803452,333.301788 192.742477,333.572845 
	C190.614914,333.852631 188.421906,333.634644 185.856934,333.632843 
z"/>
<path fill="#252260" opacity="1.000000" stroke="none" 
	d="
M207.807861,306.911560 
	C210.738708,305.943939 213.648438,305.344238 217.520218,304.546234 
	C217.520218,311.859406 217.506058,318.120758 217.527405,324.381958 
	C217.535568,326.779449 216.782059,329.568634 220.526382,330.134216 
	C220.955795,330.199097 221.661240,331.688812 221.446335,332.063721 
	C221.046539,332.761200 220.080704,333.523407 219.319305,333.557251 
	C215.995224,333.705078 212.654877,333.695129 209.332474,333.517517 
	C208.566971,333.476624 207.848953,332.547455 207.109100,332.027069 
	C207.650589,331.309021 208.101471,330.488953 208.760727,329.903534 
	C209.342636,329.386810 210.415375,329.313171 210.824493,328.730255 
	C212.722778,326.025482 210.628281,310.568237 208.171677,308.180786 
	C207.955551,307.970734 207.910995,307.584106 207.807861,306.911560 
z"/>
<path fill="#33306A" opacity="1.000000" stroke="none" 
	d="
M217.751511,297.635223 
	C216.714249,301.009125 214.412155,301.781372 211.890182,300.587067 
	C210.753067,300.048553 209.521393,297.868103 209.760712,296.733917 
	C210.055267,295.337891 211.664520,293.511963 213.017288,293.192688 
	C215.902756,292.511627 217.630630,294.231934 217.751511,297.635223 
z"/>
<path fill="#FEF7F7" opacity="1.000000" stroke="none" 
	d="
M174.111053,164.438477 
	C171.958206,151.908279 183.146393,144.417557 194.620789,150.202545 
	C199.624649,152.725311 204.336975,157.445206 207.157852,162.334854 
	C212.671097,171.891342 210.592926,182.528610 209.248611,194.208023 
	C194.488998,186.842926 179.967911,181.231003 174.111053,164.438477 
z"/>
<path fill="#E5E4EA" opacity="1.000000" stroke="none" 
	d="
M118.481522,309.468323 
	C114.636154,310.830292 111.009155,311.857330 105.903679,313.303070 
	C106.527466,307.272064 106.971642,302.977539 107.415833,298.683014 
	C110.914917,299.114746 114.935669,298.622681 117.773529,300.225311 
	C120.917778,302.000916 120.424683,305.910889 118.481522,309.468323 
z"/>
<path fill="#E9E8ED" opacity="1.000000" stroke="none" 
	d="
M308.416840,312.646240 
	C309.441315,317.209686 307.678192,320.331360 303.594177,320.467072 
	C301.181702,320.547272 297.753265,318.816742 296.460114,316.815765 
	C294.691772,314.079590 296.259552,310.877472 299.448364,309.480988 
	C303.028900,307.912964 306.287231,308.356812 308.416840,312.646240 
z"/>
<path fill="#E3E2E9" opacity="1.000000" stroke="none" 
	d="
M309.725952,339.857025 
	C305.592224,340.534882 301.736481,341.238220 297.897949,341.154236 
	C296.806458,341.130402 295.765076,338.815430 294.700714,337.551117 
	C296.121094,336.474976 297.441711,334.696136 298.983765,334.477264 
	C301.717773,334.089264 304.608795,334.481537 307.391968,334.858734 
	C310.124725,335.229095 311.833893,336.518372 309.725952,339.857025 
z"/>
<path fill="#DFDEE6" opacity="1.000000" stroke="none" 
	d="
M235.858551,329.644897 
	C234.025314,328.406219 232.571167,327.137146 231.117004,325.868103 
	C232.328598,324.515442 233.347076,322.341034 234.796494,322.000427 
	C237.037247,321.473846 241.292618,321.517090 241.688431,322.513062 
	C243.509628,327.095459 239.460541,328.249268 235.858551,329.644897 
z"/>
<path fill="#DCDBE3" opacity="1.000000" stroke="none" 
	d="
M149.401291,315.853973 
	C145.395309,316.448792 141.640289,316.733673 137.400864,317.055328 
	C138.272781,312.250366 139.537338,309.418701 143.678101,309.234222 
	C148.050354,309.039368 149.243759,311.940765 149.401291,315.853973 
z"/>
<path fill="#ECECEF" opacity="1.000000" stroke="none" 
	d="
M325.939697,317.331543 
	C327.333191,311.003723 329.771606,308.787506 334.383270,309.237244 
	C338.764648,309.664490 340.799316,312.714874 340.912537,318.753326 
	C340.990479,322.908203 340.527222,326.925293 336.554199,329.173370 
	C332.453125,331.493927 327.540833,328.817444 326.296387,323.688751 
	C325.836670,321.794067 326.034363,319.739868 325.939697,317.331543 
z"/>
</svg>