<svg version="1.1" id="Layer_1" xmlns="http://www.w3.org/2000/svg" xmlns:xlink="http://www.w3.org/1999/xlink" x="0px" y="0px"
	 width="100%" viewBox="0 0 225 225" enable-background="new 0 0 225 225" xml:space="preserve">
<path fill="#FEFDFE" opacity="1.000000" stroke="none" 
	d="
M135.000000,226.000000 
	C90.000000,226.000000 45.500004,226.000000 1.000006,226.000000 
	C1.000004,151.000000 1.000004,76.000015 1.000002,1.000016 
	C75.999992,1.000011 150.999985,1.000011 225.999969,1.000005 
	C225.999985,75.999985 225.999985,150.999969 226.000000,225.999969 
	C195.833328,226.000000 165.666672,226.000000 135.000000,226.000000 
M59.816189,191.947922 
	C60.203800,191.631119 60.591408,191.314331 61.250175,190.517502 
	C61.195763,190.341965 61.141346,190.166428 61.333344,189.340576 
	C61.237957,188.896729 61.142570,188.452881 61.175014,187.496597 
	C61.110462,187.332809 61.045910,187.169022 61.129181,186.246262 
	C60.633568,182.411285 58.758877,179.652481 54.812721,178.897644 
	C50.703358,178.111603 46.822918,178.600769 43.967796,182.137558 
	C40.798237,186.063873 40.692425,195.522125 43.714397,199.652695 
	C46.412094,203.340027 52.672749,204.411484 58.421303,202.525253 
	C61.759766,201.429825 61.071117,199.962204 59.475910,198.019379 
	C50.314484,200.427872 47.853756,199.095978 48.807514,191.939178 
	C52.290688,191.853851 55.773861,191.768539 59.816189,191.947922 
M13.432451,172.440186 
	C14.203531,172.653870 14.974611,172.867538 15.776112,173.565643 
	C15.776112,173.565643 15.984945,174.003815 15.779046,174.921021 
	C15.817327,182.839813 15.855607,190.758606 15.198551,199.048401 
	C14.004480,199.958878 12.810410,200.869370 11.616341,201.779861 
	C11.867416,202.297623 12.118492,202.815384 12.369568,203.333160 
	C14.604964,202.939041 16.840361,202.544937 19.724178,202.069763 
	C20.152094,202.004944 20.580009,201.940125 21.779058,202.018143 
	C22.514624,201.623779 23.250189,201.229416 23.985748,200.835037 
	C23.354687,200.539291 22.723627,200.243546 21.488039,199.196976 
	C21.488039,195.916260 21.488039,192.635529 21.488039,189.415436 
	C27.476851,188.612915 30.865000,194.558197 29.079239,202.552582 
	C32.697632,202.552582 36.246559,202.552582 39.784519,202.552582 
	C36.932594,197.480026 34.061340,192.373093 31.145187,187.186295 
	C36.267845,184.085312 37.652309,179.885086 35.981323,174.905319 
	C34.372414,170.110580 30.099224,169.432098 25.792637,169.423889 
	C21.503088,169.415695 17.212980,169.700912 12.343856,170.088013 
	C12.553713,170.742706 12.763569,171.397400 13.432451,172.440186 
M108.646278,18.750328 
	C99.257111,13.506269 88.991333,12.091738 78.650612,13.554531 
	C58.026699,16.471981 42.912800,31.233784 38.939850,51.748150 
	C34.407616,75.150383 43.910679,93.217171 61.917225,107.021591 
	C69.056084,112.494469 77.831322,115.872711 85.966782,119.996986 
	C100.346008,127.286530 116.947472,130.658417 127.990585,144.443573 
	C140.333954,134.253937 138.982025,121.551094 135.304245,108.447220 
	C166.161011,106.922966 180.061554,97.972351 187.873444,74.840782 
	C193.833099,57.193909 188.221970,37.471199 173.717728,25.084507 
	C161.357727,14.529012 142.152237,10.138693 131.956802,15.538087 
	C144.172363,30.201576 144.932632,47.012608 133.357803,55.069187 
	C130.871170,39.290134 123.377579,26.935600 108.646278,18.750328 
M187.573318,182.880630 
	C188.708267,182.040726 189.843201,181.200821 190.978149,180.360916 
	C187.153519,179.009155 184.026993,178.923370 180.907959,178.721710 
	C176.645767,178.446152 172.318375,178.335464 169.907578,182.665756 
	C167.555588,186.890442 168.400925,190.950836 170.862854,193.378738 
	C169.807373,198.930450 168.561646,203.540665 168.271851,208.210190 
	C168.186752,209.581223 170.670197,212.165710 172.225327,212.378967 
	C176.246002,212.930267 180.466522,212.885040 184.492203,212.294281 
	C188.430817,211.716324 190.378250,208.796783 190.110458,204.706314 
	C189.843918,200.634827 186.903610,199.646286 183.564804,199.245010 
	C180.557510,198.883560 177.539307,198.612885 174.525909,198.302170 
	C174.486481,197.776764 174.447037,197.251343 174.407593,196.725937 
	C175.728241,196.391556 177.041336,195.804031 178.370804,195.764267 
	C186.364075,195.525192 189.355835,191.554459 187.573318,182.880630 
M148.864807,191.536285 
	C148.864807,191.037674 148.920975,190.531601 148.855972,190.041611 
	C148.315018,185.963715 149.433273,182.884247 154.128098,183.075760 
	C158.794907,183.266144 157.110123,187.201660 157.068344,189.598434 
	C156.992111,193.969910 156.262482,198.329987 155.829666,202.463226 
	C158.822479,202.463226 162.314026,202.463226 167.165909,202.463226 
	C161.492096,198.418167 163.238983,193.524338 162.969833,189.069351 
	C162.939804,188.572510 162.969772,188.072296 162.963913,187.573746 
	C162.865784,179.206161 158.770737,176.549667 151.040787,179.732391 
	C150.120010,180.111511 148.939514,179.957504 147.887573,179.900360 
	C145.587173,179.775436 143.292007,179.553940 140.994705,179.371872 
	C141.623642,180.761124 142.375702,182.111008 142.836975,183.553879 
	C143.129944,184.470306 143.116974,185.536911 143.024185,186.515579 
	C142.524765,191.783752 144.799637,197.451492 140.260330,202.201523 
	C144.470490,202.201523 148.113693,202.201523 150.739380,202.201523 
	C150.038635,198.562744 149.451721,195.515060 148.864807,191.536285 
M122.589798,178.888687 
	C120.648422,180.466507 118.707047,182.044342 116.765663,183.622177 
	C117.064880,184.175537 117.364098,184.728912 117.663315,185.282272 
	C119.324509,185.141937 121.028847,185.187149 122.635818,184.813522 
	C124.573074,184.363113 126.427673,183.557175 128.318054,182.905136 
	C128.932831,184.894180 129.547607,186.883224 130.256485,189.176697 
	C126.901405,189.535400 124.349899,189.247543 122.362259,190.172012 
	C120.201439,191.177063 117.692352,192.994598 116.955032,195.041412 
	C116.274673,196.930084 117.029167,200.827484 118.423965,201.630646 
	C120.650909,202.912979 123.930481,202.501724 126.767670,202.529144 
	C128.050903,202.541550 129.386246,201.482895 130.617615,201.621887 
	C133.037720,201.895020 135.401657,202.665909 137.168640,203.084076 
	C136.577667,198.026718 136.063538,193.908096 135.629272,189.781067 
	C135.438614,187.969116 136.008026,185.776352 135.171402,184.402588 
	C133.862762,182.253754 131.928619,180.113358 129.736282,178.994659 
	C128.024628,178.121231 125.518082,178.805527 122.589798,178.888687 
M212.722992,199.047913 
	C213.247070,194.854034 214.625565,190.525970 213.995468,186.513336 
	C213.573944,183.828995 210.776047,180.589020 208.201111,179.363327 
	C202.697906,176.743759 196.307648,179.202774 193.841660,183.820145 
	C191.065292,189.018631 192.407822,198.349014 196.373474,201.416229 
	C200.534836,204.634766 207.765671,203.838531 212.722992,199.047913 
M67.221809,185.791306 
	C66.669296,191.394363 69.175812,197.521622 63.193237,202.925903 
	C67.159103,202.925903 69.961525,203.093216 72.732788,202.871338 
	C74.832375,202.703262 76.892235,202.038925 78.969772,201.595413 
	C77.184464,200.590195 75.399155,199.584991 73.312302,198.410004 
	C73.312302,193.690231 73.312302,188.446976 73.312302,183.235291 
	C80.007507,182.562347 80.007507,182.562347 79.340622,179.052155 
	C77.403519,178.964371 75.448479,178.875763 73.238190,178.775589 
	C73.161186,177.566528 72.852585,176.545044 73.095322,175.677887 
	C73.507423,174.205627 74.267052,172.830627 74.880623,171.414749 
	C76.005775,172.064377 77.062065,172.999237 78.273445,173.291718 
	C79.802925,173.661026 81.458855,173.506607 83.180534,173.583481 
	C82.834442,167.867615 79.319527,167.610016 75.681549,167.580261 
	C71.353401,167.544861 68.356842,169.236664 67.373642,173.796646 
	C66.925133,175.876785 68.494270,179.109497 64.512047,179.433365 
	C64.888985,180.571533 65.169662,181.754913 65.675758,182.832428 
	C66.029823,183.586273 66.691956,184.195419 67.221809,185.791306 
M90.263374,180.921127 
	C87.933586,180.314041 85.607697,179.687668 83.251572,179.210617 
	C83.192345,179.198608 82.370628,181.427261 82.626160,181.611832 
	C87.374252,185.041336 84.442932,189.921127 84.876434,194.057770 
	C85.126038,196.439606 83.759392,198.990814 82.868034,202.442505 
	C85.811134,203.845184 90.073639,202.659653 94.166847,202.723389 
	C94.461983,202.727966 95.025490,201.747452 95.002205,201.246429 
	C94.980209,200.772995 94.438629,200.116364 93.966263,199.916092 
	C93.091820,199.545334 92.101059,199.448883 90.607765,199.114960 
	C92.374443,193.759247 87.858253,187.338913 93.168999,183.466812 
	C95.890213,184.646133 97.620712,185.396088 99.351219,186.146057 
	C99.610733,184.379700 100.695137,181.909912 99.932297,181.015350 
	C98.845955,179.741394 96.429947,179.288864 94.530617,179.139877 
	C93.423073,179.053009 92.215416,180.242371 90.263374,180.921127 
M110.370148,202.888779 
	C111.645859,202.486343 112.921570,202.083923 114.197281,201.681503 
	C113.487686,201.028564 112.537201,200.497971 112.128052,199.692429 
	C111.588623,198.630417 111.236816,197.356415 111.217499,196.166840 
	C111.126595,190.567764 111.177025,184.966385 111.177025,179.300079 
	C108.153946,179.300079 105.628586,179.300079 102.283348,179.300079 
	C107.775856,185.714966 104.859413,192.712067 105.737564,199.242920 
	C104.289307,199.786789 103.076195,200.242371 101.863083,200.697937 
	C101.877335,201.280914 101.891579,201.863892 101.905830,202.446869 
	C104.419563,202.594193 106.933304,202.741501 110.370148,202.888779 
M107.678101,174.382202 
	C108.844765,173.158646 110.293480,172.073761 111.005081,170.626465 
	C111.216789,170.195877 109.389267,167.988998 108.442627,167.951645 
	C107.159393,167.901001 105.824646,169.155609 104.512001,169.850327 
	C105.325287,171.334274 106.138573,172.818207 107.678101,174.382202 
z"/>
<path fill="#ED1C36" opacity="1.000000" stroke="none" 
	d="
M108.983292,18.907116 
	C123.377579,26.935600 130.871170,39.290134 133.357803,55.069187 
	C144.932632,47.012608 144.172363,30.201576 131.956802,15.538087 
	C142.152237,10.138693 161.357727,14.529012 173.717728,25.084507 
	C188.221970,37.471199 193.833099,57.193909 187.873444,74.840782 
	C180.061554,97.972351 166.161011,106.922966 135.304245,108.447220 
	C138.982025,121.551094 140.333954,134.253937 127.990585,144.443573 
	C116.947472,130.658417 100.346008,127.286530 85.966782,119.996986 
	C77.831322,115.872711 69.056084,112.494469 61.917225,107.021591 
	C43.910679,93.217171 34.407616,75.150383 38.939850,51.748150 
	C42.912800,31.233784 58.026699,16.471981 78.650612,13.554531 
	C88.991333,12.091738 99.257111,13.506269 108.983292,18.907116 
M79.804146,74.639099 
	C86.147461,81.671303 94.059860,86.136650 102.846413,89.354347 
	C107.725166,76.904518 105.034973,64.588341 95.987228,56.532246 
	C91.060890,52.145844 82.987129,51.605564 78.526596,55.363811 
	C74.159889,59.043018 73.736473,65.726944 77.520790,71.719749 
	C78.051117,72.559563 78.716896,73.313835 79.804146,74.639099 
z"/>
<path fill="#150E54" opacity="1.000000" stroke="none" 
	d="
M187.433304,183.314484 
	C189.355835,191.554459 186.364075,195.525192 178.370804,195.764267 
	C177.041336,195.804031 175.728241,196.391556 174.407593,196.725937 
	C174.447037,197.251343 174.486481,197.776764 174.525909,198.302170 
	C177.539307,198.612885 180.557510,198.883560 183.564804,199.245010 
	C186.903610,199.646286 189.843918,200.634827 190.110458,204.706314 
	C190.378250,208.796783 188.430817,211.716324 184.492203,212.294281 
	C180.466522,212.885040 176.246002,212.930267 172.225327,212.378967 
	C170.670197,212.165710 168.186752,209.581223 168.271851,208.210190 
	C168.561646,203.540665 169.807373,198.930450 170.862854,193.378738 
	C168.400925,190.950836 167.555588,186.890442 169.907578,182.665756 
	C172.318375,178.335464 176.645767,178.446152 180.907959,178.721710 
	C184.026993,178.923370 187.153519,179.009155 190.978149,180.360916 
	C189.843201,181.200821 188.708267,182.040726 187.433304,183.314484 
M176.160034,191.549561 
	C176.797607,191.695419 177.431091,191.944519 178.073441,191.970016 
	C181.613113,192.110474 183.241989,190.263550 183.150482,186.835007 
	C183.062836,183.550888 181.195236,181.935654 178.035294,182.300537 
	C174.358536,182.725113 173.743027,185.451782 174.194061,188.527405 
	C174.325546,189.424072 175.050140,190.233765 176.160034,191.549561 
M184.632416,205.655716 
	C181.305466,204.863861 178.000763,203.914429 174.629181,203.438828 
	C174.082138,203.361649 172.947861,205.309708 172.647141,206.467636 
	C172.480682,207.108627 173.289932,208.321945 173.986633,208.813049 
	C177.042892,210.967545 182.295334,209.719635 184.632416,205.655716 
z"/>
<path fill="#130C51" opacity="1.000000" stroke="none" 
	d="
M15.893890,198.677399 
	C15.855607,190.758606 15.817327,182.839813 16.042599,174.351746 
	C16.119331,173.548737 15.932512,173.314972 15.745691,173.081223 
	C14.974611,172.867538 14.203531,172.653870 13.220919,171.880081 
	C12.980629,170.832474 12.951874,170.344986 12.923119,169.857483 
	C17.212980,169.700912 21.503088,169.415695 25.792637,169.423889 
	C30.099224,169.432098 34.372414,170.110580 35.981323,174.905319 
	C37.652309,179.885086 36.267845,184.085312 31.145187,187.186295 
	C34.061340,192.373093 36.932594,197.480026 39.784519,202.552582 
	C36.246559,202.552582 32.697632,202.552582 29.079239,202.552582 
	C30.865000,194.558197 27.476851,188.612915 21.488039,189.415436 
	C21.488039,192.635529 21.488039,195.916260 21.549492,199.740662 
	C21.409937,200.814667 21.208931,201.344971 21.007923,201.875290 
	C20.580009,201.940125 20.152094,202.004944 19.189993,201.817200 
	C17.735170,200.602219 16.814531,199.639801 15.893890,198.677399 
M21.958906,173.662262 
	C21.685175,177.328873 21.411444,180.995499 21.132322,184.734329 
	C25.352087,185.111435 28.750811,185.548584 30.320358,181.422531 
	C32.216301,176.438477 29.548819,173.620193 21.958906,173.662262 
z"/>
<path fill="#191356" opacity="1.000000" stroke="none" 
	d="
M148.864807,192.001831 
	C149.451721,195.515060 150.038635,198.562744 150.739380,202.201523 
	C148.113693,202.201523 144.470490,202.201523 140.260330,202.201523 
	C144.799637,197.451492 142.524765,191.783752 143.024185,186.515579 
	C143.116974,185.536911 143.129944,184.470306 142.836975,183.553879 
	C142.375702,182.111008 141.623642,180.761124 140.994705,179.371887 
	C143.292007,179.553940 145.587173,179.775436 147.887573,179.900360 
	C148.939514,179.957504 150.120010,180.111511 151.040787,179.732391 
	C158.770737,176.549667 162.865784,179.206161 162.963913,187.573746 
	C162.969772,188.072296 162.939804,188.572510 162.969833,189.069351 
	C163.238983,193.524338 161.492096,198.418167 167.165909,202.463226 
	C162.314026,202.463226 158.822479,202.463226 155.829666,202.463226 
	C156.262482,198.329987 156.992111,193.969910 157.068344,189.598434 
	C157.110123,187.201660 158.794907,183.266144 154.128098,183.075760 
	C149.433273,182.884247 148.315018,185.963715 148.855972,190.041611 
	C148.920975,190.531601 148.864807,191.037674 148.864807,192.001831 
z"/>
<path fill="#191356" opacity="1.000000" stroke="none" 
	d="
M122.977280,178.843170 
	C125.518082,178.805527 128.024628,178.121231 129.736282,178.994659 
	C131.928619,180.113358 133.862762,182.253754 135.171402,184.402588 
	C136.008026,185.776352 135.438614,187.969116 135.629272,189.781067 
	C136.063538,193.908096 136.577667,198.026718 137.168640,203.084076 
	C135.401657,202.665909 133.037720,201.895020 130.617615,201.621887 
	C129.386246,201.482895 128.050903,202.541550 126.767670,202.529144 
	C123.930481,202.501724 120.650909,202.912979 118.423965,201.630646 
	C117.029167,200.827484 116.274673,196.930084 116.955032,195.041412 
	C117.692352,192.994598 120.201439,191.177063 122.362259,190.172012 
	C124.349899,189.247543 126.901405,189.535400 130.256485,189.176697 
	C129.547607,186.883224 128.932831,184.894180 128.318054,182.905136 
	C126.427673,183.557175 124.573074,184.363113 122.635818,184.813522 
	C121.028847,185.187149 119.324509,185.141937 117.663315,185.282272 
	C117.364098,184.728912 117.064880,184.175537 116.765663,183.622177 
	C118.707047,182.044342 120.648422,180.466507 122.977280,178.843170 
M129.910080,196.045135 
	C129.805862,194.952759 129.701645,193.860382 129.578949,192.574219 
	C127.828682,192.752792 125.950157,192.397339 125.013908,193.175537 
	C123.785271,194.196747 123.299385,196.111557 122.494064,197.642059 
	C124.020462,198.097107 125.548813,198.887527 127.072510,198.878632 
	C127.955162,198.873489 128.830307,197.581924 129.910080,196.045135 
z"/>
<path fill="#150E53" opacity="1.000000" stroke="none" 
	d="
M212.501495,199.356262 
	C207.765671,203.838531 200.534836,204.634766 196.373474,201.416229 
	C192.407822,198.349014 191.065292,189.018631 193.841660,183.820145 
	C196.307648,179.202774 202.697906,176.743759 208.201111,179.363327 
	C210.776047,180.589020 213.573944,183.828995 213.995468,186.513336 
	C214.625565,190.525970 213.247070,194.854034 212.501495,199.356262 
M198.706863,195.435211 
	C199.576523,198.314484 201.511551,200.583191 204.434906,199.368866 
	C206.282944,198.601212 207.932388,196.040421 208.538971,193.954712 
	C209.196014,191.695435 209.067703,188.865952 208.279144,186.640457 
	C207.690033,184.977859 205.460663,182.753464 204.047791,182.813248 
	C202.256470,182.889053 199.641296,184.686844 199.024399,186.351059 
	C198.102432,188.838257 198.613419,191.856613 198.706863,195.435211 
z"/>
<path fill="#1C1558" opacity="1.000000" stroke="none" 
	d="
M67.219162,185.330246 
	C66.691956,184.195419 66.029823,183.586273 65.675758,182.832428 
	C65.169662,181.754913 64.888985,180.571533 64.512047,179.433365 
	C68.494270,179.109497 66.925133,175.876785 67.373642,173.796646 
	C68.356842,169.236664 71.353401,167.544861 75.681549,167.580261 
	C79.319527,167.610016 82.834442,167.867615 83.180534,173.583481 
	C81.458855,173.506607 79.802925,173.661026 78.273445,173.291718 
	C77.062065,172.999237 76.005775,172.064377 74.880623,171.414749 
	C74.267052,172.830627 73.507423,174.205627 73.095322,175.677887 
	C72.852585,176.545044 73.161186,177.566528 73.238190,178.775589 
	C75.448479,178.875763 77.403519,178.964371 79.340622,179.052155 
	C80.007507,182.562347 80.007507,182.562347 73.312302,183.235291 
	C73.312302,188.446976 73.312302,193.690231 73.312302,198.410004 
	C75.399155,199.584991 77.184464,200.590195 78.969772,201.595428 
	C76.892235,202.038925 74.832375,202.703262 72.732788,202.871338 
	C69.961525,203.093216 67.159103,202.925903 63.193237,202.925903 
	C69.175812,197.521622 66.669296,191.394363 67.219162,185.330246 
z"/>
<path fill="#150E53" opacity="1.000000" stroke="none" 
	d="
M47.974903,191.891739 
	C47.853756,199.095978 50.314484,200.427872 59.475910,198.019379 
	C61.071117,199.962204 61.759766,201.429825 58.421303,202.525253 
	C52.672749,204.411484 46.412094,203.340027 43.714397,199.652695 
	C40.692425,195.522125 40.798237,186.063873 43.967796,182.137558 
	C46.822918,178.600769 50.703358,178.111603 54.812721,178.897644 
	C58.758877,179.652481 60.633568,182.411285 60.892677,186.724274 
	C60.786507,187.471207 60.916847,187.740128 61.047188,188.009033 
	C61.142570,188.452881 61.237957,188.896729 60.795483,189.662949 
	C58.795666,189.547592 57.333710,189.109863 55.870811,188.306992 
	C55.963451,184.913818 55.002548,182.265564 51.573734,182.579758 
	C47.960762,182.910812 47.307941,185.729721 48.011505,189.292267 
	C47.991520,190.406296 47.983212,191.149017 47.974903,191.891739 
z"/>
<path fill="#181255" opacity="1.000000" stroke="none" 
	d="
M90.658081,180.889328 
	C92.215416,180.242371 93.423073,179.053009 94.530617,179.139877 
	C96.429947,179.288864 98.845955,179.741394 99.932297,181.015350 
	C100.695137,181.909912 99.610733,184.379700 99.351212,186.146057 
	C97.620712,185.396088 95.890213,184.646133 93.168999,183.466812 
	C87.858253,187.338913 92.374443,193.759247 90.607765,199.114960 
	C92.101059,199.448883 93.091820,199.545334 93.966263,199.916092 
	C94.438629,200.116364 94.980209,200.772995 95.002205,201.246429 
	C95.025490,201.747452 94.461983,202.727966 94.166847,202.723389 
	C90.073639,202.659653 85.811134,203.845184 82.868034,202.442505 
	C83.759392,198.990814 85.126038,196.439606 84.876434,194.057770 
	C84.442932,189.921127 87.374252,185.041336 82.626160,181.611832 
	C82.370628,181.427261 83.192345,179.198608 83.251572,179.210617 
	C85.607697,179.687668 87.933586,180.314041 90.658081,180.889328 
z"/>
<path fill="#10064F" opacity="1.000000" stroke="none" 
	d="
M109.908592,202.888794 
	C106.933304,202.741501 104.419563,202.594193 101.905830,202.446869 
	C101.891579,201.863892 101.877335,201.280914 101.863083,200.697937 
	C103.076195,200.242371 104.289307,199.786789 105.737564,199.242920 
	C104.859413,192.712067 107.775856,185.714966 102.283348,179.300079 
	C105.628586,179.300079 108.153946,179.300079 111.177025,179.300079 
	C111.177025,184.966385 111.126595,190.567764 111.217499,196.166840 
	C111.236816,197.356415 111.588623,198.630417 112.128052,199.692429 
	C112.537201,200.497971 113.487686,201.028564 114.197281,201.681503 
	C112.921570,202.083923 111.645859,202.486343 109.908592,202.888794 
z"/>
<path fill="#150E53" opacity="1.000000" stroke="none" 
	d="
M107.314987,174.342178 
	C106.138573,172.818207 105.325287,171.334274 104.512001,169.850327 
	C105.824646,169.155609 107.159393,167.901001 108.442627,167.951645 
	C109.389267,167.988998 111.216789,170.195877 111.005081,170.626465 
	C110.293480,172.073761 108.844765,173.158646 107.314987,174.342178 
z"/>
<path fill="#00004A" opacity="1.000000" stroke="none" 
	d="
M48.391209,191.915466 
	C47.983212,191.149017 47.991520,190.406296 48.448677,189.271957 
	C51.222267,188.810944 53.547009,188.741547 55.871758,188.672134 
	C57.333710,189.109863 58.795666,189.547592 60.672272,189.988098 
	C61.141346,190.166428 61.195763,190.341965 60.661240,190.871536 
	C59.800549,191.378113 59.528790,191.530670 59.257034,191.683212 
	C55.773861,191.768539 52.290688,191.853851 48.391209,191.915466 
z"/>
<path fill="#000047" opacity="1.000000" stroke="none" 
	d="
M15.546223,198.862900 
	C16.814531,199.639801 17.735170,200.602219 18.865782,201.857727 
	C16.840361,202.544937 14.604964,202.939041 12.369568,203.333160 
	C12.118492,202.815384 11.867416,202.297623 11.616341,201.779861 
	C12.810410,200.869370 14.004480,199.958878 15.546223,198.862900 
z"/>
<path fill="#000047" opacity="1.000000" stroke="none" 
	d="
M21.393492,201.946716 
	C21.208931,201.344971 21.409937,200.814667 21.851755,200.116074 
	C22.723627,200.243546 23.354687,200.539291 23.985752,200.835052 
	C23.250189,201.229416 22.514624,201.623779 21.393492,201.946716 
z"/>
<path fill="#38366C" opacity="1.000000" stroke="none" 
	d="
M12.633488,169.972748 
	C12.951874,170.344986 12.980629,170.832474 12.991405,171.686035 
	C12.763569,171.397400 12.553713,170.742706 12.633488,169.972748 
z"/>
<path fill="#00004A" opacity="1.000000" stroke="none" 
	d="
M61.111099,187.752808 
	C60.916847,187.740128 60.786507,187.471207 60.818764,187.103775 
	C61.045910,187.169022 61.110462,187.332809 61.111099,187.752808 
z"/>
<path fill="#150E53" opacity="1.000000" stroke="none" 
	d="
M59.536613,191.815567 
	C59.528790,191.530670 59.800549,191.378113 60.525661,191.111557 
	C60.591408,191.314331 60.203800,191.631119 59.536613,191.815567 
z"/>
<path fill="#000047" opacity="1.000000" stroke="none" 
	d="
M15.760902,173.323425 
	C15.932512,173.314972 16.119331,173.548737 16.145548,173.893158 
	C15.984945,174.003815 15.776112,173.565643 15.760902,173.323425 
z"/>
<path fill="#FFFBFB" opacity="1.000000" stroke="none" 
	d="
M79.562057,74.373398 
	C78.716896,73.313835 78.051117,72.559563 77.520790,71.719749 
	C73.736473,65.726944 74.159889,59.043018 78.526596,55.363811 
	C82.987129,51.605564 91.060890,52.145844 95.987228,56.532246 
	C105.034973,64.588341 107.725166,76.904518 102.846413,89.354347 
	C94.059860,86.136650 86.147461,81.671303 79.562057,74.373398 
z"/>
<path fill="#EFEEF3" opacity="1.000000" stroke="none" 
	d="
M175.831451,191.316437 
	C175.050140,190.233765 174.325546,189.424072 174.194061,188.527405 
	C173.743027,185.451782 174.358536,182.725113 178.035294,182.300537 
	C181.195236,181.935654 183.062836,183.550888 183.150482,186.835007 
	C183.241989,190.263550 181.613113,192.110474 178.073441,191.970016 
	C177.431091,191.944519 176.797607,191.695419 175.831451,191.316437 
z"/>
<path fill="#E4E3EA" opacity="1.000000" stroke="none" 
	d="
M184.671158,206.032745 
	C182.295334,209.719635 177.042892,210.967545 173.986633,208.813049 
	C173.289932,208.321945 172.480682,207.108627 172.647141,206.467636 
	C172.947861,205.309708 174.082138,203.361649 174.629181,203.438828 
	C178.000763,203.914429 181.305466,204.863861 184.671158,206.032745 
z"/>
<path fill="#E7E7ED" opacity="1.000000" stroke="none" 
	d="
M22.346863,173.517624 
	C29.548819,173.620193 32.216301,176.438477 30.320358,181.422531 
	C28.750811,185.548584 25.352087,185.111435 21.132322,184.734329 
	C21.411444,180.995499 21.685175,177.328873 22.346863,173.517624 
z"/>
<path fill="#EEEDF2" opacity="1.000000" stroke="none" 
	d="
M129.809448,196.457214 
	C128.830307,197.581924 127.955162,198.873489 127.072510,198.878632 
	C125.548813,198.887527 124.020462,198.097107 122.494064,197.642059 
	C123.299385,196.111557 123.785271,194.196747 125.013908,193.175537 
	C125.950157,192.397339 127.828682,192.752792 129.578949,192.574219 
	C129.701645,193.860382 129.805862,194.952759 129.809448,196.457214 
z"/>
<path fill="#EFEFF3" opacity="1.000000" stroke="none" 
	d="
M198.610855,195.042114 
	C198.613419,191.856613 198.102432,188.838257 199.024399,186.351059 
	C199.641296,184.686844 202.256470,182.889053 204.047791,182.813248 
	C205.460663,182.753464 207.690033,184.977859 208.279144,186.640457 
	C209.067703,188.865952 209.196014,191.695435 208.538971,193.954712 
	C207.932388,196.040421 206.282944,198.601212 204.434906,199.368866 
	C201.511551,200.583191 199.576523,198.314484 198.610855,195.042114 
z"/>
<path fill="#E1E0E8" opacity="1.000000" stroke="none" 
	d="
M55.870811,188.307007 
	C53.547009,188.741547 51.222267,188.810944 48.460350,188.900650 
	C47.307941,185.729721 47.960762,182.910812 51.573734,182.579758 
	C55.002548,182.265564 55.963451,184.913818 55.870811,188.307007 
z"/>
</svg>