<?xml version="1.0" standalone="no"?>
<!DOCTYPE svg PUBLIC "-//W3C//DTD SVG 20010904//EN"
 "http://www.w3.org/TR/2001/REC-SVG-20010904/DTD/svg10.dtd">
<svg version="1.0" xmlns="http://www.w3.org/2000/svg"
 width="225.000000pt" height="225.000000pt" viewBox="0 0 225.000000 225.000000"
 preserveAspectRatio="xMidYMid meet">

<g transform="translate(0.000000,225.000000) scale(0.100000,-0.100000)"
fill="#000000" stroke="none">
<path d="M736 2114 c-226 -55 -380 -271 -363 -509 10 -131 68 -253 168 -353
78 -78 145 -118 349 -208 250 -110 285 -128 337 -180 43 -44 46 -45 64 -28 57
51 87 158 70 246 -6 29 -13 63 -17 76 -6 21 -4 22 63 22 193 0 344 91 423 254
62 129 74 217 45 331 -37 140 -128 249 -264 314 -64 30 -88 36 -162 39 -49 3
-99 2 -113 -2 l-25 -6 39 -52 c78 -104 77 -239 -3 -340 -8 -10 -16 -18 -19
-18 -3 0 -11 26 -18 58 -19 89 -59 161 -125 228 -117 118 -288 167 -449 128z
m219 -425 c64 -59 85 -109 85 -202 0 -41 -4 -87 -10 -101 l-9 -26 -48 22
c-194 90 -287 236 -204 319 26 25 37 29 85 29 52 0 60 -3 101 -41z"/>
<path d="M686 561 c-9 -10 -20 -35 -23 -55 -3 -21 -11 -36 -19 -36 -8 0 -14
-9 -14 -20 0 -11 7 -20 15 -20 12 0 15 -16 15 -85 0 -69 -3 -85 -15 -85 -8 0
-15 -7 -15 -15 0 -12 15 -15 75 -15 58 0 75 3 75 14 0 9 -12 16 -27 18 -28 3
-28 4 -31 86 l-3 82 36 0 c28 0 35 4 35 20 0 16 -7 20 -35 20 -33 0 -35 2 -35
35 0 41 25 59 45 32 17 -23 55 -22 55 1 0 29 -21 42 -70 42 -33 0 -52 -6 -64
-19z"/>
<path d="M1037 566 c-11 -28 4 -47 32 -44 20 2 26 8 26 28 0 20 -6 26 -26 28
-17 2 -29 -3 -32 -12z"/>
<path d="M117 563 c-12 -12 -7 -22 13 -28 19 -6 20 -15 20 -137 0 -121 -1
-130 -20 -135 -11 -3 -20 -12 -20 -19 0 -11 16 -14 65 -14 49 0 65 3 65 14 0
7 -9 16 -20 19 -17 4 -20 14 -20 56 0 49 1 51 29 51 24 0 31 -6 45 -44 10 -26
14 -55 10 -70 -6 -26 -5 -26 50 -26 42 0 56 4 56 14 0 8 -9 18 -20 21 -11 3
-20 12 -20 18 0 7 -11 33 -23 58 l-23 47 22 21 c30 29 37 65 20 105 -11 27
-23 37 -53 45 -42 12 -166 15 -176 4z m147 -43 c59 -22 36 -110 -29 -110 l-35
0 0 53 c0 70 9 78 64 57z"/>
<path d="M449 457 c-27 -20 -39 -54 -39 -106 0 -96 32 -127 124 -119 62 5 69
8 61 30 -5 12 -17 14 -50 10 -50 -5 -70 6 -78 43 -4 25 -3 25 64 25 l69 0 0
39 c0 24 -8 48 -21 65 -17 22 -28 26 -67 26 -26 0 -54 -6 -63 -13z m93 -41 c4
-6 8 -19 8 -28 0 -14 -9 -18 -40 -18 -36 0 -40 3 -40 25 0 39 50 54 72 21z"/>
<path d="M814 459 c-4 -7 1 -16 10 -21 23 -13 24 -178 0 -178 -9 0 -14 -6 -12
-12 3 -8 28 -14 66 -16 51 -2 62 0 62 13 0 8 -9 15 -20 15 -18 0 -20 7 -20 79
0 65 3 80 17 85 11 4 22 1 29 -8 21 -29 44 -19 44 19 0 33 -2 35 -33 35 -18 0
-39 -6 -46 -12 -11 -10 -14 -10 -18 0 -6 15 -69 16 -79 1z"/>
<path d="M1020 455 c0 -9 7 -18 15 -21 12 -5 15 -24 15 -86 0 -72 -2 -80 -20
-85 -39 -10 -14 -28 43 -31 44 -2 57 0 57 11 0 8 -7 17 -15 21 -12 4 -15 26
-15 106 l0 100 -40 0 c-29 0 -40 -4 -40 -15z"/>
<path d="M1188 458 c-8 -7 -18 -20 -21 -29 -8 -25 37 -31 57 -7 29 34 71 12
64 -34 -2 -19 -10 -24 -51 -28 -26 -3 -55 -13 -64 -22 -18 -19 -20 -72 -2 -94
14 -17 72 -18 102 -3 16 9 22 9 25 0 6 -17 72 -14 72 4 0 8 -4 15 -10 15 -6 0
-10 28 -10 63 0 70 -13 127 -32 139 -20 12 -113 9 -130 -4z m102 -147 c0 -28
-38 -53 -62 -40 -36 19 -14 59 34 59 21 0 28 -5 28 -19z"/>
<path d="M1397 456 c-3 -8 1 -17 9 -20 11 -4 14 -26 14 -91 0 -50 -4 -85 -10
-85 -5 0 -10 -7 -10 -16 0 -12 10 -14 52 -12 30 2 53 8 56 16 2 6 -3 12 -12
12 -13 0 -16 13 -16 74 0 80 11 100 52 94 22 -3 23 -8 26 -85 2 -53 -1 -83 -8
-83 -5 0 -10 -7 -10 -15 0 -12 13 -15 55 -15 42 0 55 3 55 15 0 8 -7 15 -15
15 -12 0 -15 16 -15 83 0 101 -14 127 -66 127 -20 0 -45 -5 -57 -11 -16 -9
-22 -9 -25 0 -5 16 -69 14 -75 -3z"/>
<path d="M1706 449 c-30 -23 -36 -81 -12 -114 12 -16 12 -22 -1 -42 -9 -14
-13 -33 -9 -47 3 -14 2 -28 -4 -31 -19 -12 -10 -54 15 -71 19 -12 41 -15 89
-12 81 5 108 25 104 77 -4 44 -32 61 -105 61 -51 0 -67 10 -40 27 6 4 19 6 29
5 9 -2 32 4 52 12 39 16 52 47 42 96 -5 25 -2 30 14 30 11 0 20 7 20 15 0 12
-16 15 -84 15 -69 0 -88 -4 -110 -21z m102 -21 c7 -7 12 -24 12 -38 0 -31 -17
-50 -45 -50 -27 0 -45 18 -45 46 0 43 50 70 78 42z m23 -215 c28 -28 -34 -63
-83 -47 -31 9 -39 24 -26 47 8 16 18 19 55 14 25 -2 49 -9 54 -14z"/>
<path d="M1963 458 c-53 -25 -63 -155 -17 -202 22 -21 36 -26 78 -26 60 1 80
13 102 65 21 50 11 119 -21 151 -19 19 -34 24 -72 23 -26 0 -58 -5 -70 -11z
m111 -70 c18 -73 -15 -139 -63 -123 -45 14 -56 111 -17 150 33 33 68 22 80
-27z"/>
</g>
</svg>
